<svg width="120" height="137" viewBox="0 0 120 137" fill="none" xmlns="http://www.w3.org/2000/svg">
<path d="M47.4985 0.432236C46.1339 0.913876 44.5819 2.38557 43.8862 3.83049C42.8159 6.1049 43.4581 9.34259 45.3579 11.1354C46.7493 12.4465 48.0604 12.8746 51.2981 13.0352L54.1612 13.169V15.5236C54.1612 16.8348 54.1077 17.9051 54.0274 17.9051C53.2782 17.9051 47.552 18.8951 45.4649 19.3768C35.297 21.785 25.236 27.4041 17.6636 34.9231C12.7134 39.8733 9.0743 44.9037 5.99715 51.1918C3.16082 56.9715 1.52859 62.1625 0.485039 68.7985C-0.157149 72.8121 -0.157149 82.0971 0.458281 86.0037C3.26785 103.182 12.2585 117.364 26.4669 126.943C33.5845 131.733 41.7723 134.89 50.8165 136.362C54.9104 137.004 64.1151 137.004 68.2091 136.362C81.3739 134.221 92.4784 128.602 101.656 119.451C110.781 110.353 116.427 99.1953 118.567 86.0037C119.183 82.0971 119.183 72.8121 118.541 68.7985C116.855 58.1756 112.681 48.4625 106.339 40.5154C105.456 39.3916 104.733 38.4016 104.733 38.2945C104.733 38.1875 105.911 36.9299 107.356 35.485L109.978 32.8895L110.861 33.7992C112.547 35.5385 114.34 35.9934 116.132 35.1371C117.872 34.3076 118.674 31.7656 117.738 29.9996C117.524 29.5983 115.33 27.2703 112.841 24.8354C108.132 20.1527 107.195 19.5373 105.509 19.9119C104.332 20.1795 102.914 21.5174 102.593 22.6947C102.218 24.1129 102.646 25.3705 104.065 26.9225L105.242 28.2604L102.593 30.8826L99.9706 33.5049L98.2581 32.0332C90.1505 24.9959 79.0727 19.9119 68.7442 18.467C67.0942 18.2279 66.251 18.1544 65.8229 17.9051C65.2931 17.5965 65.3995 17.0186 65.3995 15.5236V13.169L68.0485 13.0084C70.9919 12.8479 72.5438 12.3395 73.8014 11.0551C76.5307 8.27228 76.2632 3.72345 73.2128 1.39552C72.5706 0.913882 71.6341 0.405481 71.0721 0.244934C70.4567 0.0843872 65.9882 -0.0226379 59.379 0.00411987C50.4419 0.00411987 48.4886 0.0843842 47.4985 0.432236ZM66.6036 28.2336C84.4511 30.7488 99.8368 43.2715 105.991 60.3162C108.025 65.9086 108.854 70.7518 108.854 77.1736C108.854 83.9166 107.918 89.0541 105.67 94.9944C99.9973 109.818 86.993 121.378 71.6876 125.177C63.7673 127.157 54.9104 127.157 47.1239 125.177C36.5278 122.501 26.7345 115.946 19.9647 107.089C13.3823 98.4461 10.0108 88.3584 10.0108 77.3342C9.98406 63.8215 14.961 51.727 24.46 42.2547C35.6983 30.9897 50.7362 26.0127 66.6036 28.2336Z" fill="#D2CCCC"/>
<path d="M57.72 38.6424L55.7667 41.3985V57.025V72.6516L54.5893 73.6416C51.2981 76.3709 51.1108 81.8027 54.188 84.7193C56.3821 86.7797 59.8874 87.3951 62.5899 86.191C65.3727 84.9334 66.7641 82.8463 66.9514 79.7424C67.0585 77.9229 66.9782 77.4947 66.336 76.1568C65.9079 75.2203 65.1587 74.2303 64.4362 73.6416L63.2589 72.6516V56.9983V41.3717L61.6266 38.7494C60.7436 37.2777 59.9141 36.0469 59.8339 35.9934C59.7268 35.9399 58.7636 37.144 57.72 38.6424Z" fill="#F23A3A"/>
<path d="M98.1103 93.4222L96.2916 90.5755L81.813 84.6968L67.3344 78.818L66.86 77.3547C65.5694 73.2785 60.6071 71.0615 56.7471 72.8153C54.0127 74.0732 52.1238 77.0894 52.2227 80.0464C52.341 83.0979 53.7514 85.1723 56.5568 86.5135C58.2024 87.2972 58.6292 87.3839 60.1104 87.2922C61.1392 87.2479 62.3384 86.9261 63.1556 86.4782L64.5158 85.7598L79.0192 91.6486L93.4978 97.5274L96.5415 97.0016C98.2372 96.7371 99.6897 96.4316 99.7695 96.3773C99.8594 96.2983 99.1061 94.9528 98.1103 93.4222Z" fill="#F23A3A"/>
</svg>
